<svg xmlns="http://www.w3.org/2000/svg" viewBox="0 0 99 99"><g id="Layer_2" data-name="Layer 2"><g id="Capa_1" data-name="Capa 1"><path d="M31.6,92c0-3.9-2.7-7-6-7H15c-1.6,0-3-1.6-3-3.5v-64c0-1.9,1.4-3.5,3-3.5h10.8c3.3,0,6-3.1,6-7s-2.7-7-6-7H15
	C6.7,0,0,7.9,0,17.5v64C0,91.1,6.7,99,15,99h10.5C28.9,99,31.6,95.9,31.6,92z M73.4,99H84c8.3,0,15-7.9,15-17.5v-64
	C99,7.9,92.3,0,84,0H73.2c-3.3,0-6,3.1-6,7s2.7,7,6,7H84c1.7,0,3,1.6,3,3.5v64c0,1.9-1.3,3.5-3,3.5H73.4c-3.3,0-6,3.1-6,7
	S70.1,99,73.4,99z M69.7,73.3c1.8-3.2,2.7-6.6,2.7-10.2c0-4-0.8-7.4-2.3-10.1c-1.5-2.7-3.6-4.9-6.3-6.5c-2.7-1.6-6.8-3.1-12.4-4.6
	c-5.6-1.5-9.1-2.9-10.5-4.2c-1.1-1.1-1.7-2.4-1.7-3.9c0-1.7,0.6-3,1.8-3.9c1.9-1.5,4.5-2.3,7.8-2.3c3.2,0,5.7,0.7,7.3,2.1
	c1,0.9,1.8,2.1,2.3,3.7c0.7,2,2.5,3.3,4.4,3.2l2.7-0.1c3.1-0.2,5.1-3.6,4.1-6.8c-0.9-2.9-2.5-5.4-4.6-7.4c-3.6-3.5-9-5.3-16.1-5.3
	c-4.4,0-8.1,0.7-11.2,2.2c-3.1,1.5-5.4,3.6-7.1,6.4c-1.6,2.8-2.5,5.9-2.5,9.1c0,5,1.7,9.3,5.2,12.8c2.5,2.5,6.8,4.6,12.9,6.3
	c4.8,1.3,7.8,2.3,9.2,2.8c2,0.8,3.3,1.7,4.1,2.8c0.8,1.1,1.2,2.3,1.2,3.8c0,2.3-0.9,4.4-2.8,6.1c-1.9,1.8-4.7,2.6-8.4,2.6
	c-3.5,0-6.3-1-8.3-2.9c-1.4-1.3-2.5-3.2-3.2-5.5c-0.7-2.2-2.6-3.5-4.7-3.3l-2.3,0.3c-2.9,0.3-4.7,3.5-3.9,6.6
	c1.2,4.2,3.1,7.6,5.8,10.2c3.8,3.7,9.4,5.6,16.6,5.6c4.9,0,9.1-0.8,12.4-2.3C65.3,78.8,67.9,76.5,69.7,73.3z"/></g></g></svg>
