<?xml version="1.0" encoding="utf-8"?>
<!-- Generator: Adobe Illustrator 16.0.0, SVG Export Plug-In . SVG Version: 6.00 Build 0)  -->
<!DOCTYPE svg PUBLIC "-//W3C//DTD SVG 1.1//EN" "http://www.w3.org/Graphics/SVG/1.1/DTD/svg11.dtd">
<svg version="1.1" id="Twitter" xmlns="http://www.w3.org/2000/svg" xmlns:xlink="http://www.w3.org/1999/xlink" x="0px" y="0px"
	 width="20px" height="20px" viewBox="7.5 7.5 20 20" enable-background="new 7.5 7.5 20 20" xml:space="preserve">
<path fill="#403B33" d="M24.657,13.828c0.007,0.159,0.01,0.319,0.01,0.478c0,4.881-3.713,10.508-10.506,10.508
	c-2.087,0-4.027-0.61-5.661-1.661c0.29,0.034,0.583,0.052,0.88,0.052c1.731,0,3.323-0.59,4.586-1.579
	c-1.615-0.029-2.979-1.096-3.449-2.564c0.225,0.043,0.457,0.065,0.694,0.065c0.337,0,0.665-0.044,0.974-0.128
	c-1.689-0.341-2.962-1.833-2.962-3.623c0-0.016,0-0.031,0-0.046c0.498,0.277,1.068,0.444,1.672,0.462
	C9.904,15.129,9.251,14,9.251,12.717c0-0.676,0.183-1.312,0.501-1.857c1.821,2.236,4.544,3.706,7.612,3.859
	c-0.062-0.271-0.094-0.551-0.094-0.842c0-2.039,1.653-3.69,3.692-3.69c1.063,0,2.022,0.447,2.696,1.166
	c0.841-0.167,1.631-0.474,2.345-0.896c-0.276,0.861-0.862,1.585-1.623,2.042c0.746-0.09,1.458-0.286,2.12-0.581
	C26.005,12.659,25.38,13.308,24.657,13.828z"/>
</svg>
