<?xml version="1.0" encoding="utf-8"?>
<!-- Generator: Adobe Illustrator 16.0.0, SVG Export Plug-In . SVG Version: 6.00 Build 0)  -->
<!DOCTYPE svg PUBLIC "-//W3C//DTD SVG 1.1//EN" "http://www.w3.org/Graphics/SVG/1.1/DTD/svg11.dtd">
<svg version="1.1" id="Instagram" xmlns="http://www.w3.org/2000/svg" xmlns:xlink="http://www.w3.org/1999/xlink" x="0px" y="0px"
	 width="20px" height="20px" viewBox="7.5 7.5 20 20" enable-background="new 7.5 7.5 20 20" xml:space="preserve">
<path fill="#403B33" d="M24.5,8.5h-14c-1.1,0-2,0.9-2,2v14c0,1.101,0.9,2,2,2h14c1.1,0,2-0.899,2-2v-14C26.5,9.4,25.6,8.5,24.5,8.5z
	 M17.484,23.022c3.059,0,5.539-2.48,5.539-5.539c0-0.338-0.044-0.664-0.104-0.984H24.5v7.216c0,0.383-0.311,0.69-0.693,0.69H11.193
	c-0.383,0-0.693-0.308-0.693-0.69V16.5h1.549c-0.062,0.32-0.104,0.646-0.104,0.984C11.945,20.543,14.426,23.022,17.484,23.022z
	 M14.023,17.484c0-1.912,1.55-3.461,3.462-3.461s3.462,1.549,3.462,3.461c0,1.913-1.551,3.462-3.462,3.462
	C15.572,20.946,14.023,19.396,14.023,17.484z M23.807,13.5h-1.614c-0.382,0-0.692-0.312-0.692-0.692v-1.617
	c0-0.382,0.311-0.691,0.69-0.691h1.615c0.384,0,0.694,0.309,0.694,0.691v1.616C24.5,13.188,24.189,13.5,23.807,13.5z"/>
</svg>
