<?xml version="1.0" encoding="utf-8"?>
<!-- Generator: Adobe Illustrator 16.0.0, SVG Export Plug-In . SVG Version: 6.00 Build 0)  -->
<!DOCTYPE svg PUBLIC "-//W3C//DTD SVG 1.1//EN" "http://www.w3.org/Graphics/SVG/1.1/DTD/svg11.dtd">
<svg version="1.1" id="Dribbble" xmlns="http://www.w3.org/2000/svg" xmlns:xlink="http://www.w3.org/1999/xlink" x="0px" y="0px"
	 width="20px" height="20px" viewBox="7.5 7.5 20 20" enable-background="new 7.5 7.5 20 20" xml:space="preserve">
<path fill="#FFFFFF" d="M17.075,14.977c-1.329-2.362-2.75-4.289-2.854-4.43c-2.143,1.014-3.743,2.989-4.243,5.368
	C10.18,15.919,13.384,15.957,17.075,14.977z M18.031,17.56c0.101-0.032,0.202-0.062,0.303-0.092
	c-0.192-0.438-0.403-0.876-0.623-1.307c-3.958,1.186-7.756,1.1-7.891,1.096c-0.003,0.082-0.007,0.162-0.007,0.245
	c0,1.976,0.747,3.776,1.973,5.139l-0.005-0.007C11.781,22.633,13.885,18.902,18.031,17.56z M12.776,23.56v-0.004
	c-0.057-0.044-0.117-0.084-0.174-0.132C12.706,23.507,12.776,23.56,12.776,23.56z M15.659,10.037
	c-0.007,0.002-0.015,0.004-0.015,0.004c0.006-0.002,0.014-0.002,0.014-0.002L15.659,10.037z M22.576,11.732
	c-1.354-1.192-3.129-1.919-5.076-1.919c-0.625,0-1.231,0.077-1.812,0.216c0.117,0.157,1.561,2.073,2.874,4.485
	C21.461,13.429,22.556,11.763,22.576,11.732z M17.5,26.5c-4.97,0-9-4.029-9-8.999c-0.001-4.972,4.028-9.002,9-9.002
	c4.972,0,9,4.03,9,9.002C26.501,22.471,22.473,26.5,17.5,26.5z M18.808,18.758c-4.511,1.572-6.001,4.733-6.032,4.798
	c1.305,1.019,2.941,1.63,4.723,1.63c1.064,0,2.079-0.216,3.001-0.607c-0.114-0.675-0.561-3.029-1.643-5.838
	C18.842,18.746,18.825,18.752,18.808,18.758z M19.153,15.661c0.181,0.365,0.351,0.737,0.513,1.114
	c0.058,0.132,0.111,0.266,0.165,0.397c2.655-0.334,5.269,0.233,5.355,0.251c-0.019-1.823-0.672-3.495-1.748-4.806
	C23.421,12.64,22.187,14.42,19.153,15.661z M20.3,18.386c1.008,2.774,1.417,5.03,1.495,5.488c1.726-1.165,2.953-3.013,3.294-5.155
	C24.937,18.67,22.784,17.988,20.3,18.386z"/>
</svg>
