<?xml version="1.0" encoding="utf-8"?>
<!-- Generator: Adobe Illustrator 16.0.0, SVG Export Plug-In . SVG Version: 6.00 Build 0)  -->
<!DOCTYPE svg PUBLIC "-//W3C//DTD SVG 1.1//EN" "http://www.w3.org/Graphics/SVG/1.1/DTD/svg11.dtd">
<svg version="1.1" id="Mail" xmlns="http://www.w3.org/2000/svg" xmlns:xlink="http://www.w3.org/1999/xlink" x="0px" y="0px"
	 width="20px" height="20px" viewBox="7.5 7.5 20 20" enable-background="new 7.5 7.5 20 20" xml:space="preserve">
<path fill="#403B33" d="M8.138,12.262c0.542,0.291,8.053,4.327,8.333,4.477c0.28,0.15,0.642,0.221,1.006,0.221
	c0.365,0,0.727-0.071,1.007-0.221c0.28-0.15,7.791-4.186,8.334-4.477c0.543-0.292,1.056-1.429,0.06-1.429H8.079
	C7.082,10.833,7.596,11.97,8.138,12.262z M27.069,14.71c-0.616,0.321-8.207,4.277-8.585,4.474c-0.378,0.199-0.642,0.223-1.007,0.223
	c-0.364,0-0.628-0.023-1.006-0.223c-0.378-0.196-7.925-4.153-8.542-4.475C7.496,14.482,7.5,14.748,7.5,14.952s0,8.104,0,8.104
	c0,0.466,0.629,1.111,1.111,1.111h17.777c0.482,0,1.111-0.646,1.111-1.111c0,0,0-7.898,0-8.102
	C27.5,14.749,27.504,14.483,27.069,14.71z"/>
</svg>
